{
    "asset" : {
        "generator" : "Khronos glTF Blender I/O v1.7.33",
        "version" : "2.0"
    },
    "scene" : 0,
    "scenes" : [
        {
            "name" : "Scene",
            "nodes" : [
                0
            ]
        }
    ],
    "nodes" : [
        {
            "mesh" : 0,
            "name" : "node_id85"
        }
    ],
    "materials" : [
        {
            "alphaCutoff" : 0.5,
            "alphaMode" : "MASK",
            "doubleSided" : true,
            "name" : "116",
            "pbrMetallicRoughness" : {}
        },
        {
            "alphaCutoff" : 0.5,
            "alphaMode" : "MASK",
            "doubleSided" : true,
            "name" : "114",
            "pbrMetallicRoughness" : {}
        },
        {
            "alphaCutoff" : 0.5,
            "alphaMode" : "MASK",
            "doubleSided" : true,
            "name" : "115",
            "pbrMetallicRoughness" : {}
        }
    ],
    "meshes" : [
        {
            "name" : "mesh_id86",
            "primitives" : [
                {
                    "attributes" : {
                        "POSITION" : 0,
                        "NORMAL" : 1,
                        "TEXCOORD_0" : 2
                    },
                    "indices" : 3,
                    "material" : 0
                },
                {
                    "attributes" : {
                        "POSITION" : 4,
                        "NORMAL" : 5,
                        "TEXCOORD_0" : 6
                    },
                    "indices" : 7,
                    "material" : 1
                },
                {
                    "attributes" : {
                        "POSITION" : 8,
                        "NORMAL" : 9,
                        "TEXCOORD_0" : 10
                    },
                    "indices" : 11,
                    "material" : 2
                }
            ]
        }
    ],
    "accessors" : [
        {
            "bufferView" : 0,
            "componentType" : 5126,
            "count" : 1602,
            "max" : [
                0.1336316466331482,
                0.3318140208721161,
                0.333158016204834
            ],
            "min" : [
                -0.12788450717926025,
                -0.33263155817985535,
                -0.33319640159606934
            ],
            "type" : "VEC3"
        },
        {
            "bufferView" : 1,
            "componentType" : 5126,
            "count" : 1602,
            "type" : "VEC3"
        },
        {
            "bufferView" : 2,
            "componentType" : 5126,
            "count" : 1602,
            "type" : "VEC2"
        },
        {
            "bufferView" : 3,
            "componentType" : 5123,
            "count" : 1716,
            "type" : "SCALAR"
        },
        {
            "bufferView" : 4,
            "componentType" : 5126,
            "count" : 366,
            "max" : [
                0.1318570375442505,
                0.2725197374820709,
                0.27708643674850464
            ],
            "min" : [
                -0.1314610242843628,
                -0.2749270498752594,
                -0.2759895324707031
            ],
            "type" : "VEC3"
        },
        {
            "bufferView" : 5,
            "componentType" : 5126,
            "count" : 366,
            "type" : "VEC3"
        },
        {
            "bufferView" : 6,
            "componentType" : 5126,
            "count" : 366,
            "type" : "VEC2"
        },
        {
            "bufferView" : 7,
            "componentType" : 5123,
            "count" : 366,
            "type" : "SCALAR"
        },
        {
            "bufferView" : 8,
            "componentType" : 5126,
            "count" : 1829,
            "max" : [
                0.10368466377258301,
                0.18278157711029053,
                0.18509918451309204
            ],
            "min" : [
                -0.10708695650100708,
                -0.18576371669769287,
                -0.18344426155090332
            ],
            "type" : "VEC3"
        },
        {
            "bufferView" : 9,
            "componentType" : 5126,
            "count" : 1829,
            "type" : "VEC3"
        },
        {
            "bufferView" : 10,
            "componentType" : 5126,
            "count" : 1829,
            "type" : "VEC2"
        },
        {
            "bufferView" : 11,
            "componentType" : 5123,
            "count" : 2337,
            "type" : "SCALAR"
        }
    ],
    "bufferViews" : [
        {
            "buffer" : 0,
            "byteLength" : 19224,
            "byteOffset" : 0
        },
        {
            "buffer" : 0,
            "byteLength" : 19224,
            "byteOffset" : 19224
        },
        {
            "buffer" : 0,
            "byteLength" : 12816,
            "byteOffset" : 38448
        },
        {
            "buffer" : 0,
            "byteLength" : 3432,
            "byteOffset" : 51264
        },
        {
            "buffer" : 0,
            "byteLength" : 4392,
            "byteOffset" : 54696
        },
        {
            "buffer" : 0,
            "byteLength" : 4392,
            "byteOffset" : 59088
        },
        {
            "buffer" : 0,
            "byteLength" : 2928,
            "byteOffset" : 63480
        },
        {
            "buffer" : 0,
            "byteLength" : 732,
            "byteOffset" : 66408
        },
        {
            "buffer" : 0,
            "byteLength" : 21948,
            "byteOffset" : 67140
        },
        {
            "buffer" : 0,
            "byteLength" : 21948,
            "byteOffset" : 89088
        },
        {
            "buffer" : 0,
            "byteLength" : 14632,
            "byteOffset" : 111036
        },
        {
            "buffer" : 0,
            "byteLength" : 4674,
            "byteOffset" : 125668
        }
    ],
    "buffers" : [
        {
            "byteLength" : 130344,
            "uri" : "data:application/octet-stream;base64,"
        }
    ]
}
